# xmcd
#
# Track frame offsets:
#	150
#	16399
#	46423
#	61129
#	77449
#	96372
#	116347
#	133275
#	149922
#	163840
#	182927
#	193132
#	210098
#	226176
#	243542
#	263709
#	283382
#	305744
#	315996
#
# Disc length: 4367 seconds
#
# Revision: 1
# Processed by: cddbd v1.5.2PL0 Copyright (c) Steve Scherf et al.
# Submitted via: audiograbber 1.83.01
#
DISCID=18110d13
DTITLE=Машина Времени - Привет
DYEAR=1900
DGENRE=Blues
TTITLE0=Привет
TTITLE1=Звезды не ездят в метро
TTITLE2=Однажды мир прогнется под нас
TTITLE3=Он был старше ее
TTITLE4=Пока горит свеча
TTITLE5=Ты или я
TTITLE6=Эпоха Большой нелюбви
TTITLE7=Поворот
TTITLE8=Скачки
TTITLE9=Марионетки
TTITLE10=Синяя птица
TTITLE11=За тех, кто в море
TTITLE12=Костер
TTITLE13=Скворец
TTITLE14=Музыка под снегом
TTITLE15=Барьер
TTITLE16=Старые друзья
TTITLE17=Кошка, которая гуляет сама по себе
TTITLE18=Разговор в поезде
EXTD=
EXTT0=
EXTT1=
EXTT2=
EXTT3=
EXTT4=
EXTT5=
EXTT6=
EXTT7=
EXTT8=
EXTT9=
EXTT10=
EXTT11=
EXTT12=
EXTT13=
EXTT14=
EXTT15=
EXTT16=
EXTT17=
EXTT18=
PLAYORDER=
